<svg width="672" height="326" viewBox="0 0 672 326" fill="none" xmlns="http://www.w3.org/2000/svg">
<rect width="672" height="326" rx="30" fill="white"/>
<rect width="672" height="326" rx="20" fill="url(#paint0_linear)"/>
<g filter="url(#filter0_d)">
<path d="M335.5 228C371.122 228 400 199.122 400 163.5C400 127.878 371.122 99 335.5 99C299.878 99 271 127.878 271 163.5C271 199.122 299.878 228 335.5 228Z" fill="#3C3CD6"/>
<path d="M399.208 153.407L371.024 140.51L362.833 167.318L306.213 139.445L301.907 168.65L322.625 170.13C316.95 174.482 310.535 177.773 303.69 179.845L332.947 194.207C334.062 197.636 335.177 201.061 336.292 204.485L365.63 220.534C376.054 214.989 384.777 206.718 390.869 196.605C402.116 177.751 400.052 159.038 399.208 153.407Z" fill="#263677"/>
<path d="M375.138 143.485C371.897 140.015 366.962 138.305 360.243 138.305H338.097C337.831 138.305 337.624 138.305 337.357 138.305H336.839C335.254 138.306 333.718 138.852 332.487 139.85C331.256 140.848 330.405 142.238 330.076 143.788L327.975 153.607C326.988 158.19 325.73 161.534 324.201 163.641C322.152 166.741 318.955 169.005 314.715 169.005C310.616 169.005 308.137 166.785 307.382 163.633C306.751 161.522 306.919 158.177 307.886 153.6L309.365 146.674C309.564 145.782 309.585 144.859 309.425 143.958C309.265 143.058 308.928 142.199 308.434 141.429C307.94 140.66 307.298 139.997 306.546 139.477C305.794 138.957 304.946 138.591 304.052 138.401C303.158 138.211 302.235 138.2 301.336 138.369C300.438 138.537 299.582 138.883 298.817 139.384C298.053 139.886 297.395 140.534 296.883 141.291C296.371 142.048 296.013 142.9 295.832 143.796L293.731 153.592C292.251 160.671 292.177 166.186 293.509 170.137C295.891 176.797 302.225 180.977 312.229 180.985C316.633 180.997 320.985 180.032 324.971 178.159C328.957 176.286 332.477 173.551 335.278 170.152C340.265 163.411 341.345 156.974 342.108 153.607C342.381 152.364 342.64 151.128 342.899 149.907H355.537C358.778 149.907 361.25 150.647 362.715 152.127C364.18 153.607 364.646 156.056 363.876 159.527C363.107 162.997 361.716 165.55 359.555 167.074C357.395 168.598 354.694 169.464 351.372 169.464H343.151C341.771 169.46 340.433 169.934 339.363 170.806C338.293 171.677 337.558 172.892 337.283 174.244L335.803 180.955L334.183 188.591C333.643 190.811 332.703 194.629 332.333 197.234C332.282 197.567 332.257 197.903 332.259 198.24C332.261 199.914 332.883 201.529 334.004 202.772C335.126 204.016 336.668 204.8 338.334 204.973H339.725C341.159 204.856 342.514 204.271 343.584 203.309C344.653 202.346 345.377 201.059 345.644 199.646L348.604 185.839L349.61 180.977H350.173C357.498 180.977 363.516 179.357 368.227 176.116C372.852 172.882 376.093 167.325 377.787 159.453C379.23 152.201 378.379 146.881 375.138 143.485Z" fill="white"/>
</g>
<defs>
<filter id="filter0_d" x="267" y="98" width="137" height="137" filterUnits="userSpaceOnUse" color-interpolation-filters="sRGB">
<feFlood flood-opacity="0" result="BackgroundImageFix"/>
<feColorMatrix in="SourceAlpha" type="matrix" values="0 0 0 0 0 0 0 0 0 0 0 0 0 0 0 0 0 0 127 0"/>
<feOffset dy="3"/>
<feGaussianBlur stdDeviation="2"/>
<feColorMatrix type="matrix" values="0 0 0 0 0.230868 0 0 0 0 0.339263 0 0 0 0 0.908333 0 0 0 0.6 0"/>
<feBlend mode="normal" in2="BackgroundImageFix" result="effect1_dropShadow"/>
<feBlend mode="normal" in="SourceGraphic" in2="effect1_dropShadow" result="shape"/>
</filter>
<linearGradient id="paint0_linear" x1="0" y1="0" x2="672" y2="326" gradientUnits="userSpaceOnUse">
<stop stop-color="#8F60FF"/>
<stop offset="0.505208" stop-color="#6675FF"/>
<stop offset="1" stop-color="#67ADFF"/>
</linearGradient>
</defs>
</svg>
