<svg xmlns="http://www.w3.org/2000/svg" xmlns:xlink="http://www.w3.org/1999/xlink" viewBox="0 0 114.88 154.35"><defs><style>.cls-1{fill:url(#linear-gradient);}.cls-2{fill:url(#linear-gradient-2);}.cls-3{fill:url(#linear-gradient-3);}</style><linearGradient id="linear-gradient" x1="57.44" y1="154.35" x2="57.44" gradientUnits="userSpaceOnUse"><stop offset="0" stop-color="#6c81ff"/><stop offset="0.43" stop-color="#ff58cc"/><stop offset="1" stop-color="#fff243"/></linearGradient><linearGradient id="linear-gradient-2" x1="61.28" y1="135.47" x2="61.28" y2="135.4" xlink:href="#linear-gradient"/><linearGradient id="linear-gradient-3" x1="61.24" y1="135.43" x2="61.24" y2="135.4" xlink:href="#linear-gradient"/></defs><g id="Layer_2" data-name="Layer 2"><g id="Layer_1-2" data-name="Layer 1"><path class="cls-1" d="M113.26,102.41c.53-.29,1,0,1.31-.35a1.81,1.81,0,0,0,.31-1.31c0-.71-.07-1.41-.12-2.11-.24-3.11-.74-6.21-.82-9.34-.13-5,0-10-1.37-14.92-.57-2-.79-4.18-1.32-6.24a73,73,0,0,0-3.74-9.76c-2.6-6.26-7.64-9.14-14.1-10-.59-.08-1.18-.12-1.77-.16a17.23,17.23,0,0,0-.1-6.32,16.39,16.39,0,0,0-5.35-8.7,17.9,17.9,0,0,1-3.64-5.12,2.11,2.11,0,0,1-.19-1.47c.29-1.5.37-3,.73-4.52.25-1-.19-1.93,0-2.94a21.07,21.07,0,0,0,.55-7.51,41.28,41.28,0,0,1-.57-4.55C83,3.16,78.46-.48,74.28.21a6.72,6.72,0,0,1-2.1,0,8.22,8.22,0,0,0-3.79.06A32.19,32.19,0,0,0,57.87,5.59a13.89,13.89,0,0,0-4.95,6.8,17.68,17.68,0,0,0-.51,8.87,4,4,0,0,1,0,1.14,29.23,29.23,0,0,1-1.59,6.23c-1,3.22-1.62,6.49-.25,9.76.25.58.5,1.16.76,1.74-.2.14-.07.51-.07.73A28,28,0,0,0,51.84,46a7.76,7.76,0,0,0-5,4.37,44.85,44.85,0,0,0-3.95,12.6c-.36,2-.31,4.16-1.48,6a12.87,12.87,0,0,0-1.77,6.75c0,.64-.17.79-.81.77-4.12-.13-8.22-.57-12.32-.86a2.17,2.17,0,0,0-2.44,1A3,3,0,0,0,23.12,79c.22,1.32.45,2.64.64,4,.34,2.44,1.5,4.68,1.72,7.14a18.58,18.58,0,0,1,.45,4.07l-.22-.42c-.43-1-2-1.14-1.73-2.57,0,0-.09-.08-.14-.12a6.81,6.81,0,0,0-3.17-1.67,23.69,23.69,0,0,0-5.25-.27,6.86,6.86,0,0,0-3.63,1.09A10.64,10.64,0,0,0,7.32,97.1a19.13,19.13,0,0,0-.21,4.21,13,13,0,0,0,2.51,7.29c3.54,4.8,10.28,9.88,10.28,9.89,10.83,8.13,12.26,10.42,19.64,14.23,1.25.64,2.29,1.14,3,1.46,0,.3.08.64.11,1-.86-.44-5,1-8.4-.19-.17-.06-.6-.21-1.12-.44-1.38-.64-2.34-1.47-7.23-4a51.1,51.1,0,0,0-7.75-3.59,20.14,20.14,0,0,0-5.91-1.37,15.83,15.83,0,0,0-7.84,1.79,5,5,0,0,0-2.44,2.48,34.79,34.79,0,0,0-1.53,4c-.67,2.5-.72,5,1.4,6.92A10.36,10.36,0,0,0,7,143.32a56.6,56.6,0,0,0,5.82.48,80.51,80.51,0,0,0,11.2.43c.64,0,1.27-.11,1.91-.2.17,0,.38-.1.39-.34s-.21-.2-.34-.26a4.67,4.67,0,0,0-2.22-.51c-5.12.12-10.21-.34-15.32-.59a9.58,9.58,0,0,1-5.82-2.39,3.8,3.8,0,0,1-1.42-2.53c-.29-3,.89-5.65,2.48-8.13a1.56,1.56,0,0,1,.58-.5,22.86,22.86,0,0,1,2.41-1.14.79.79,0,0,0-.12.51,1.75,1.75,0,0,0,.58,1.07c.53.51,1.08,1,1.61,1.51a1.88,1.88,0,0,1,.4,2.72c-.22.38-.48.74-.72,1.12-1.23,1.94-1.47,4.17-2,6.54a2.24,2.24,0,0,0,.85-1.31A24.35,24.35,0,0,1,9.72,134a2.69,2.69,0,0,0,.45-2.09,14.16,14.16,0,0,0,1.85.88h0c-.3.18.19,1.47.5,2.66a16.66,16.66,0,0,1,.55,4.14c0,.27.44.63.46.65.17.13.25.14.28.14.2,0,.35-.26.49-.4.46-.47.89-1,1.38-1.53a27.53,27.53,0,0,0,1,3.14c.32-1.32-.15-2.34-.21-3.38s.88-1.8,1.08-2.86a2.84,2.84,0,0,1,1.05,1.51,2.49,2.49,0,0,1-.1,1.71l-.9,2.79c1.06-.93,1.36-2.23,1.87-3.61.78,1.09,2,1.65,2.27,2.92a.62.62,0,0,0,.68.52c.26,0,.37-.42.33-.71-.06-.46.31-.88.42-1.34.38-1.7,3.38-4.46,3.1-4.77a.16.16,0,0,0-.16,0c-.1,0-.1.26-.19.33a13.25,13.25,0,0,0-3.23,3.58,9.41,9.41,0,0,0-.76-3c-.61,1.39.6,2.71.18,4.22-.85-1.49-2.95-2.06-2.42-4.28l-.74,1-.53-.41a7.41,7.41,0,0,0-.86-.51.44.44,0,0,0,0-.1l0,.08-.17-.08.15.11a6.29,6.29,0,0,1-2.87,3.15,9,9,0,0,0-1.31.67h0c-.29-2.05-.59-4.11-.88-6.16l0,0a10.33,10.33,0,0,0,5.47.43A12.46,12.46,0,0,1,8,129.27,2.54,2.54,0,0,1,7.16,128c0-.18.32-.52-.12-.56a20.89,20.89,0,0,1,4.74-.69c2.26-.07,3.87.25,15.58,5.24,1.18.51,2.9,1.17,3.6,2.81a5.92,5.92,0,0,1,0,3.7,11.65,11.65,0,0,1-2,4.48l.25.08a4.43,4.43,0,0,0,1.66-1.43c1.69-2.47-.06-5.76,1.11-6.45a1.83,1.83,0,0,1,2.09.71c1.36,2-3,6.88-2.55,7.2.11.07.41-.17.53-.27,2.4-2,2-5.45,4.12-6.41l.51-.16a16.45,16.45,0,0,1,6-.55,4.09,4.09,0,0,1,1.55.3,3.22,3.22,0,0,1,.41.19l.22.12c2.46,1.51,6.79,3.65,6.52,4.94,0,.22-.25.44-1.57.9-2.88,1-4.94,1-8.79,1.65-1.18.2-1.81.3-1.81.33a28,28,0,0,0,7.94-1.06c.85-.22,1.72-.41,2.56-.67,2.11-.67,3.21-1.3,4.26-.81a2.09,2.09,0,0,1,.79.66s0,0,0,0a6.48,6.48,0,0,0,.62,1.37A31.3,31.3,0,0,0,59,148.21a3.53,3.53,0,0,0,2.3,1.24,17.44,17.44,0,0,1,2.17.31c2.85.58,5.52,1.82,8.43,2.17a16.23,16.23,0,0,1,5.39,1.57c2.59,1.3,5.21,1,7.8,0a1.61,1.61,0,0,0,1.07-2.3c-.18-.58-.4-1.14-.62-1.71a11,11,0,0,1-.65-6.29,19.13,19.13,0,0,0,.44-5.8,4.39,4.39,0,0,0-1.53-3.07A6.61,6.61,0,0,0,80.51,133l1-.31a51.62,51.62,0,0,0,6.54-2.05,76.68,76.68,0,0,0,14.66-8.39c2.75-2.12,5.71-4,8-6.67a8.87,8.87,0,0,0,2.07-3.61,15.21,15.21,0,0,0,.46-3.45c0-2.37-1.39-3.5-.83-5A1.89,1.89,0,0,1,113.26,102.41ZM88.15,36.07A13.71,13.71,0,0,1,91,42.58a16.52,16.52,0,0,1,.08,5.61l-1.2-.09c-.06-2.6.19-5.23-.48-7.81a14.11,14.11,0,0,0-2-4.53C87.85,35.53,88,35.88,88.15,36.07ZM91,48.92c-.18,1.16-.42,2.31-.66,3.46a4.23,4.23,0,0,1-.16.48c-.11-1.29-.14-2.43-.22-3.57,0-.15,0-.3,0-.45ZM85.15,35c-1.36.34-1.88,1.19-2.14,3a23.09,23.09,0,0,0,.77,9.85,21.1,21.1,0,0,1,.1,10.79c-.25,1.15-.43,2.32-.68,3.69a6.57,6.57,0,0,0,1.35-3.09,33.75,33.75,0,0,0,1.12-5.9,15.81,15.81,0,0,0-.81-5.75,22.14,22.14,0,0,1-.68-10.32,3.64,3.64,0,0,1,.29-.9c.44-.84,1.11-.87,1.65-.1a14.65,14.65,0,0,1,2.43,9c0,.88,0,1.77,0,2.65-.26,0-.53-.07-.79-.13a3.61,3.61,0,0,0-1.6-.17c-.26,0-.5.16-.47.5s.32.26.51.24a7.71,7.71,0,0,1,2.34.29c0,1,0,2,.06,2.92.09,1.68.35,3.42.49,5.13a20.07,20.07,0,0,1,0,5.74c-.63,2.94-1.12,6-3.52,8.28a12,12,0,0,0-1.27,1.63c.29-2.22-.79-4.56.6-6.68l-.59.52c-.23-.42.11-.93-.3-1.3a1.34,1.34,0,0,0-.34,1,3.29,3.29,0,0,1-1.06,2.63c-.67.84-1.26,1.74-2,2.73-.18-1.26-.1-2.42-.17-3.57-.14-2.13-.33-4.26-.52-6.39a44.62,44.62,0,0,0,.7-10.6c-.47,2.8-.66,5.64-.9,8.48-.33-3.69-.62-7.38-.59-11.09a63.54,63.54,0,0,0-.28-8.72,2,2,0,0,1,.38-1.16,22.41,22.41,0,0,0,2.68-7.73A24.05,24.05,0,0,1,85.15,35ZM55.61,20.13c.73-1.23,2.37-1.74,3.3-2l.42-.12a15.81,15.81,0,0,1,6.84-.36,19.63,19.63,0,0,1,8.71,2.68c.29.18.59.31.68.73a14,14,0,0,0,4.31,7.09,2.11,2.11,0,0,1,.68,1.67c0,3.11-1.45,5.71-2.75,8.37a11.5,11.5,0,0,1-5.58,5.3,3.74,3.74,0,0,1-4.59-.66,51.54,51.54,0,0,0-5.85-5.09,6.23,6.23,0,0,1-2.21-3.17,51.2,51.2,0,0,0-2.94-6.11,7.48,7.48,0,0,1-1-4.83A4.13,4.13,0,0,1,55.61,20.13Zm12.74-6.21c-.09-.28.25-.13.37-.1a27.25,27.25,0,0,1,5.82,2.37c.67.36.24,1,.54,1.46.42-.15.35-.56.5-.71,1.37.15,1.53,1.23,1.85,2.23.07-.29.14-.58.25-1a11.62,11.62,0,0,1,1.73,1.34c.49.56-.06,1.42.37,2.11.5-.3.32-.89.62-1.23,1.73.83,1.79,2.3,1.43,3.91a12.76,12.76,0,0,0-.22,1.44c-.77-2.95-3.08-4.68-5.25-6.4a10.75,10.75,0,0,0-4.09-2,1.08,1.08,0,0,1-.88-1.56c.08-.25.34-.59-.12-.67s-.34.35-.36.62a2.18,2.18,0,0,0,0,.57c.08.51-.12.61-.58.48s-.86-.23-1.3-.32c-1.4-.29-1.4-.28-1-1.62C68.18,14.56,68.5,14.35,68.35,13.92Zm12,13A12.85,12.85,0,0,1,77,22,7.58,7.58,0,0,1,80.32,26.87Zm-26-15A13.39,13.39,0,0,1,59.24,6a40.07,40.07,0,0,1,8-4.17,7.13,7.13,0,0,1,4.23-.41,10.6,10.6,0,0,0,2.58.08c4.42-.21,7.15,1.87,7.88,6.14a33.24,33.24,0,0,1,.68,6.75c-.06,1.95-.42,3.85-.65,5.9a31,31,0,0,0-6.62-5,25.12,25.12,0,0,0-13.31-3.61,14.59,14.59,0,0,0-8,2.88c-.13.09-.29.15-.23.44,1.15-.31,2.13-1.08,3.39-1.2v2.81a4.12,4.12,0,0,0,.55-2.28s0,0,0-.06c0,.18,0,.41.1.69.08-.58.59-.91.8-1.46a3.75,3.75,0,0,0-.54,0,.89.89,0,0,1,.52-.16,6.58,6.58,0,0,0,.75-.14c2.12-.38,2.12-.38,1.69,1.83a3,3,0,0,0,0,.53c.49-.2.5-.59.55-.94.24-1.64.59-1.94,2.19-1.7,1.4.2,2.78.45,4.31.71a2.48,2.48,0,0,0-.58,2.58A36.47,36.47,0,0,0,62.87,16a7.92,7.92,0,0,0-3.62.74c-1,.48-2.1.92-3.11,1.45-1.61.84-2.13,2.32-2.18,4.2a4.73,4.73,0,0,1-.89-2.32A18.35,18.35,0,0,1,54.32,11.86ZM52.14,32.64a28,28,0,0,1,1.13-9.4,5.05,5.05,0,0,1,1.18,4A24.19,24.19,0,0,1,53.14,32a3.77,3.77,0,0,1-.38.75c-.1.14-.19.37-.41.33S52.14,32.82,52.14,32.64Zm.94.36c.53-.21.69-1,1-1.5a29.78,29.78,0,0,0,1.16-3.59c1,2.52,2.44,4.57,3.23,6.93a7.43,7.43,0,0,0,2.51,3.67,43.52,43.52,0,0,1,5.8,5.14,4.8,4.8,0,0,0,5.9.92,12.84,12.84,0,0,0,5.52-4.46c.19,4.5.22,8.78-1,13a.85.85,0,0,1-.72.72,7.08,7.08,0,0,1-4.28-.54.7.7,0,0,1-.36-.41c-.58-1.3-1.48-2.43-2.09-3.71-.47-1-1.31-1.87-1-3.12,0-.07-.2-.23-.33-.3s-.28.05-.38.18a.71.71,0,0,0,0,.8,15.31,15.31,0,0,1,.83,5.41,39.49,39.49,0,0,0,.47,4.19c.43,2.71,1.63,5.23,2.09,7.93.21,1.19.81,2.35.63,3.56a15.18,15.18,0,0,0-.33,3.31,2.39,2.39,0,0,0-1.74.23,6.74,6.74,0,0,0-3.71,4.89c-.07.29-.24.63.14.71s.24-.33.32-.55c.65-1.88,1.53-3.56,3.51-4.4.71-.3,1.14-.23,1.3.61A10.48,10.48,0,0,0,72,74.14c.09.26.2.56.58.55s.49-.24.54-.56.15-.62.16-.94c0-1.18,0-2.37,0-3.55,0-1.42-.56-2.83,0-4.25a11.65,11.65,0,0,0,.42-5.83c-.15-1.09-.49-2.14-.64-3.25,1.81.37,2.69.19,3-.58-1.73.66-3.26.18-3.55-1.17a7.17,7.17,0,0,0,4.37-.26.73.73,0,0,1,.1-.14c.11.07.08.16,0,.25a24.43,24.43,0,0,0,.36,2.82c.47,2.48,1.49,4.82,1.73,7.35v.06c0,.17,0,.34-.08.51s-.25.14-.53.11c-1.42-.17-2.92-.15-3.93-1.44a.29.29,0,0,0-.43-.06c-.18.14-.09.28,0,.4a3.78,3.78,0,0,0,.64.56,6,6,0,0,0,3.63.92,1.17,1.17,0,0,1,.49.06c-.09.48-.18,1-.29,1.44.12-.47.24-.94.35-1.41.15.09.23.27.26.6.06.93.11,1.85.16,2.78a25.78,25.78,0,0,1,0,3.93c0,.33,0,.68.4.79s.46-.1.53-.39a14.59,14.59,0,0,1,2.29-4.14c.26-.39.43-.88,1-1.14-.19,2.55.28,5-.41,7.44a4.57,4.57,0,0,0,0,1.23c0,.15,0,.34.26.33a.35.35,0,0,0,.32-.3c.09-.31.07-.62.13-.94.56-3.15,3.26-4.86,4.89-7.51a10.67,10.67,0,0,0,0,2.68c.42,1.48-.15,2.73-.58,4a6.83,6.83,0,0,0-.39,1.65c0,.56-.46,1.09-.12,1.72A2.6,2.6,0,0,0,88,78a46.44,46.44,0,0,1,6.22-14.42c1.51-2.39,1.68-5.07,1.55-7.81a8.39,8.39,0,0,0-.45,2,12.78,12.78,0,0,1-2,6.16,27.93,27.93,0,0,0-3,5.79c-.19.49-.43,1-.72,1.57a17.41,17.41,0,0,1,.28-3.77,62.25,62.25,0,0,0,.53-11,7.58,7.58,0,0,1,0-2.85A25.13,25.13,0,0,0,91.53,49a25.9,25.9,0,0,1,4.28.58,16.5,16.5,0,0,1,6.27,3.15,1.74,1.74,0,0,0-1.62,1.14,12.54,12.54,0,0,0-.79,2c-.84,3.43-1.67,6.86-2.43,10.3-1.14,5.12-2.76,10.15-2.83,15.47a10.38,10.38,0,0,1-2.86,7.12A32.12,32.12,0,0,0,88.92,92a1.27,1.27,0,0,1-1.71.57,11.69,11.69,0,0,0-6.89-.48c-.1-1.57-.15-3.15-.13-4.73a32,32,0,0,0-.81-7.22,2,2,0,0,0-1.76-1.65A17,17,0,0,0,75,78.3c-3,0-5.95-.2-8.92-.37-.76,0-.78-.38-.64-.88a6.46,6.46,0,0,0,.1-2.19c-.18-2.84-1-5.57-1.44-8.36,0-.3,0-.74-.37-.78s-.46.46-.56.75a30.65,30.65,0,0,1-2.53,5.06c0-1.28-.12-2.54-.26-3.79.25,0,.32-.25.38-.48a3.41,3.41,0,0,0,.14-.55A33.28,33.28,0,0,0,61.05,58a6,6,0,0,0-1.27-3.64,41.54,41.54,0,0,1,.47,5.32,61.94,61.94,0,0,1-.12,6.39c-.38-2.71-.93-5.4-1.42-8.14a2.77,2.77,0,0,0-.26,2,1.22,1.22,0,0,1-.22.83c-.24-1.56-.44-3.14-.63-4.72s-.37-3.15-.55-4.73c0-.16,0-.33-.18-.4,0-.26-.08-.53-.14-.79-.86-3.92-1.58-7.86-3.43-11.48a6.84,6.84,0,0,1-.83-2.71C52.41,34.92,51.33,33.7,53.08,33Zm25.5,26.78c-.79-2.66-1.44-5.33-.38-8.09C78.11,54.4,78.51,57.08,78.58,59.78Zm-6.44,9.8a5.77,5.77,0,0,1,.29,2.53C71.51,71.32,72.24,70.41,72.14,69.58ZM69.76,50.5c2.54,3.07,4.06,10.34,3,14.32C72.22,63.84,69.94,52.93,69.76,50.5ZM87.7,99.58a16.42,16.42,0,0,0-2.2,1.15l-.22.12,0-.06c0-.2.1-.41-.08-.52s-.35.07-.46.23l-.12.2-.15-.19a20,20,0,0,0-3.78-4.12c-.14-1.13-.25-2.25-.33-3.39a4.58,4.58,0,0,1,3.42.12c.39.17.88,0,1.26.35a8.42,8.42,0,0,1,3.1,5.24A.67.67,0,0,1,87.7,99.58Zm.76.72c.1.7.75.45,1.18.61-1.39,1.15-2.82,2-4.2,3a8,8,0,0,0-.94.81c.18-.88.35-1.76.53-2.63.08-.06.16-.11.24-.18a18.15,18.15,0,0,1,2.81-1.62C88.19,100.26,88.44,100.12,88.46,100.3Zm-7,.61h-.06c-.19-1-.35-2.1-.5-3.15.69.85,1.41,1.67,2.14,2.49.53.59,1.27,1.21.43,2.12a.67.67,0,0,0-.1.45,16.1,16.1,0,0,1-.79,4.77c-.19-1.16-.34-2.32-.57-3.46-.12-.57-.23-1.15-.34-1.72a7.87,7.87,0,0,0,0-.84C81.59,101.35,81.75,101,81.44,100.91Zm2.49,1.53c.14-.08.28-.2.4,0a25,25,0,0,1-1.22,5.39A22.13,22.13,0,0,0,83.93,102.44ZM57.78,61.3a3.4,3.4,0,0,0-.34.4,2.33,2.33,0,0,1-.1-.35,2.57,2.57,0,0,1,0-.48c0-.48.06-.95.09-1.43C57.54,60.06,57.66,60.68,57.78,61.3ZM51.31,29.91c.14,1.8-.1,3.52.15,5.24a18.77,18.77,0,0,0,1.52,5,15.26,15.26,0,0,1,1.36,4.51C52,40.05,49,35.6,51.31,29.91ZM40.39,76c.53-1.92.47-4,1.59-5.76A8.77,8.77,0,0,0,43.3,67c.41-2.25.53-4.55,1.11-6.79a42.07,42.07,0,0,1,3.1-9.18c1-2,2.31-3.75,4.55-4.14a23.87,23.87,0,0,0,1.2,3.61,14.3,14.3,0,0,1,1.28,5.65,16.13,16.13,0,0,1-.66,5.36,2.06,2.06,0,0,0,1-1.26A12.94,12.94,0,0,0,55,51.66c-.55-1.62-1.29-3.18-1.8-4.82.08,0,.14,0,.22,0s.33,0,.39-.16a.37.37,0,0,0-.22-.47A3.14,3.14,0,0,0,53,46l0-.13c-.3-1.31-.53-2.63-.74-3.95a27.06,27.06,0,0,0,1.74,3,8.71,8.71,0,0,1,1.45,3.86c.07.53.18,1.06.3,1.59a29.81,29.81,0,0,1,.71,9.13c-.12,1.21,0,2.43,0,3.65,0,.35.1.68.47.74s.44-.27.58-.53.37-.66.58-1a1.55,1.55,0,0,1,0,.21,4.27,4.27,0,0,0,.76,2.25c.08-.11.16-.16.15-.2-.21-1-.39-2-.55-2.94.07-.12.14-.23.21-.36a33,33,0,0,1,.81,5.22c.15,1.85.24,3.7.42,5.54,0,.39-.05,1,.51,1.12s.63-.52.82-.87c.75-1.44,1.46-2.89,2.22-4.38.36.44.25.89.34,1.29a34.08,34.08,0,0,1,1.1,7.73c0,.81-.25.9-.95.86q-6.09-.33-12.17-.59c-1.42-.06-1.43,0-1.49-1.45a24.68,24.68,0,0,0-4.4-12.81c-.25-.38-.64-.71-.18-1.25-1.21.23-1.26.34-.71,1.21.06.11.15.21.22.32A32.44,32.44,0,0,1,49.77,76c.18,1.15.06,1.27-1,1.18A55.42,55.42,0,0,0,41,76.56C40.5,76.58,40.27,76.41,40.39,76ZM25,82.89c-.22-1.26-.43-2.52-.59-3.79a2,2,0,0,1,2.44-2.4c3.05.33,6.1.6,9.17.72,1.31,0,2.35.16,3,.18,1,0,1.69,0,1.93,0,2.45,0,4.9.48,7.07.61s4.53.28,6.8.36c4.69.17,9.38.51,14.07.85a44.26,44.26,0,0,0,7.19,0c1.88-.16,2.34.27,2.63,2.11.53,3.44.32,6.9.5,10.34,0,.21,0,.41.05.62q.06.93.15,1.89c0,.32,0,.63.08.94.11,1.19.38,3.19.55,4.26,1.37,8.4,2.05,12.6,2.1,12.85s.19,1.13-1,1q-5.61-.69-11.27-1c-3.21-.16-6.42-.66-9.63-.85-5-.31-10-.76-15-.66-3.71.07-7.41.46-11.12.43-.54,0-1.09,0-1.63,0a2.55,2.55,0,0,1-2.58-2.49c-1-5.79-2-11.57-2.9-17.38C26.45,88.54,25.47,85.77,25,82.89ZM42.62,133.3a133.72,133.72,0,0,1-17.14-11.72c-3.71-3-7.47-5.92-11-9.16-2.72-2.52-5.39-5.17-6.1-9s-.57-7.68,2.4-10.84a6.41,6.41,0,0,1,4.43-2.17c2.14-.13,4.34-.38,6.33.52,1.47.67,2.29,2.22,3.43,3.33,1.86,1.84,1.67,4.29,2.09,6.57.58,3.2,1.23,6.39,1.89,9.57a3,3,0,0,0,2.26,1.79,25.24,25.24,0,0,0,5.35.33c1.37,0,2.74-.13,4.11-.22a.85.85,0,0,1,.69.24,116.32,116.32,0,0,0,10.71,9c.2.14.38.32.67.57-4.4,1.57-6.84,5.12-9.3,8.64a2.37,2.37,0,0,0-.58,1.77c0,.24.16.45.42.45.42,0,.11-.33.19-.46.27-.44,0-1.4,1.07-1.12.22.07.22-.15.23-.31a2.21,2.21,0,0,1,.67-1.75c.37.17.51.66,1.07.7a6.45,6.45,0,0,1-.4-1.32c-.15-.47.58-.74.81-1.27.32.65.45,1.34,1.39,1.28l-2.82,3.18a12.3,12.3,0,0,0-.77,1C43.88,134.07,43.9,134,42.62,133.3Zm7.1-8.39a.63.63,0,0,0-.15-.17,10.16,10.16,0,0,1,1.14-.89,1.68,1.68,0,0,1,.41-.17,1.35,1.35,0,0,0,.46.85.32.32,0,0,0-.1.39c.13.37.44.34.74.23-.51.42-1,.84-1.49,1.27A14.7,14.7,0,0,1,49.72,124.91Zm.36,2.11c-.48.44-1,.88-1.41,1.36-.25.26-.38.31-.64,0a1.53,1.53,0,0,1-.13-2c.31-.36.65-.69,1-1a4,4,0,0,1,.34.37,5.45,5.45,0,0,0,.35.62C49.72,126.56,49.9,126.78,50.08,127Zm2-2.73h0a.93.93,0,0,0-.87-.65,7,7,0,0,1,1.78-1.15c.17-.09.31-.14.48,0a2.55,2.55,0,0,0,1.21.62C53.77,123.54,52.92,123.93,52.05,124.29Zm32.28,13.76a20.48,20.48,0,0,1-.4,3.9,12.78,12.78,0,0,0,.81,8.77c.63,1.4.51,1.56-1,2a8,8,0,0,1-6.39-.57,12.53,12.53,0,0,0-4.44-1.4,29.78,29.78,0,0,1-5.66-1.38,11.3,11.3,0,0,0-4.89-.69,2.94,2.94,0,0,1-2.53-.9,36.72,36.72,0,0,1-3.76-4.59,4.86,4.86,0,0,1-.81-2.32c0-.48.11-.71.65-.63a9.29,9.29,0,0,0,4.05-.41c.29-.09.6-.27.88-.1l.07,0a13.32,13.32,0,0,0,.63,4.5c.18.58.61,1.77.75,1.74s0-.13,0-.26a2.58,2.58,0,0,0,1.26-.43,2.62,2.62,0,0,0,.85-1c.5.67.52,1.6,1.29,2.28a12.37,12.37,0,0,0-.69-2.59c-.31-1,.6-1.54.78-2.55.32.66.55,1.14.8,1.61a1.18,1.18,0,0,1-.11,1.48c-.2.24-.75.67-.2,1s.66-.32.92-.6a.3.3,0,0,1,.11-.07c.52.65.45,1.62,1.17,2.18a5.58,5.58,0,0,0-.41-1.69,1.91,1.91,0,0,1,.28-2.18,7.4,7.4,0,0,0,1.35-2.74,22.14,22.14,0,0,0-2.47,2.88c-.16-1.36-1.57-2.33-.64-3.9-.38.09-.48.2-.53.36-.12.35-.3,0-.45,0a.37.37,0,0,0-.29.5c.44,1-.43,1.51-.78,2.38l-.55-1.15c-.17-.34-.31-.7-.51-1s-.34-.64-.72-.41-.1.5,0,.75c.22.42.42.85.64,1.28a2.89,2.89,0,0,1,.5,1.38,2.7,2.7,0,0,1-1.14,1.6c-.22.19-.39.31-.5.39-.08-1.19-.69-4.31-.81-4.93a8.93,8.93,0,0,0-.24-.86.36.36,0,0,0,.1-.15.63.63,0,0,0-.07-.63,1.83,1.83,0,0,1,1-3,7.26,7.26,0,0,1,1.61-.22c.83,0,1.66,0,2.89,0,2.07.34,4.4-.44,6.79-.82q2.91-.45,5.84-.77c-.34.23-.89.64-1.72,1.33-4.14,3.44-6.21,5.16-6.37,7.13-.24,3,3,5.49,3.82,6.07a11.72,11.72,0,0,0,5.55,2.11,14.13,14.13,0,0,1-4.32-2.16c-1.26-.94-3.52-2.64-3.66-5a5.73,5.73,0,0,1,.25-1.85,5.57,5.57,0,0,1,1.26-2.08c1.83-2,4.69-4.81,5.41-5.59l.39-.05A3.77,3.77,0,0,1,84.33,138.05Zm24.93-22.29A63.53,63.53,0,0,1,102,121.5a61.73,61.73,0,0,1-18.88,9.61c-1.39.43-2.79.86-4.17,1.33a39.87,39.87,0,0,1-10,2c-2.18.15-4.36.51-6.54.73-.38,0-.67.47-1.08.27a.1.1,0,0,1,0,.15,3.21,3.21,0,0,0-1.2,2.87c0,.43-.23.49-.57.6a9,9,0,0,1-3.79.31c-.92-.09-1.19.33-1.23,1.14a4.78,4.78,0,0,0,0,.76v0c-.6-.31-6.85-3.45-8.69-4.92-.36-.28-1.12-.9-1-1.57a1.45,1.45,0,0,1,.34-.6,19,19,0,0,1,3.08-3.55c.87-.87,1.73-1.75,2.62-2.6a30.67,30.67,0,0,0,9.23,7.07,1.73,1.73,0,0,0,1.13.3c-.5-.92-1.46-1.31-2.25-1.89a45.19,45.19,0,0,1-7.44-6.1,18.83,18.83,0,0,1,5.28-3.57c.07,0,.09-.16.09-.15l-.29-.22A38.53,38.53,0,0,0,66,117.72c.37-.31.9-.49,1.08-1.17a11.88,11.88,0,0,0-3.21,1.52,65.87,65.87,0,0,1-8.28,4.64C51,119.29,47,115.18,42.05,112.34l20.63.55c10.66,1.26,18.48,2,19.14,1.76a2.65,2.65,0,0,0,.91-.52,2.48,2.48,0,0,0,.41-.54,4.69,4.69,0,0,0,.53-2c0-1.12-.33-1.89-.2-2.35.32-1.17.59-2.36.84-3.54a.49.49,0,0,0,.42-.14c1.49-1.26,3.26-2.1,4.83-3.26a13.15,13.15,0,0,1,3.78-2.39,22.74,22.74,0,0,1,14.73.49,4.73,4.73,0,0,1,3.1,3.14c.2.68.45,1.33.6,2C112.58,109.33,112.24,112.8,109.26,115.76Zm1.85-15A8.69,8.69,0,0,0,106,98.2a23.08,23.08,0,0,1-2.55-.83c-1.89-.48-3.75-.05-5.61.21-1.61.22-3.21.48-4.81.76a9.55,9.55,0,0,0-3.11,1.19c-.58.33-.74.09-.78-.41a9.78,9.78,0,0,0-1.28-4.56c-.27-.44.18-.56.47-.58,3.3-.27,6.4-1.4,9.61-2a13.69,13.69,0,0,1,2.39-.13c.26,0,.58,0,.6-.3a.14.14,0,0,0,0-.13,14.23,14.23,0,0,1,3.16,1.41c.49.3,1.34.74,2.94,1.87a9.28,9.28,0,0,0,.95.58,19.38,19.38,0,0,0-5.23-3.89A9.18,9.18,0,0,0,98.37,90c-1.52,0-2.34.51-2.49.26-.36-.6,4.93-3.05,8.1-8.38a17.92,17.92,0,0,0,1.67-3.71,33.79,33.79,0,0,1-4.77,6.52c-3.21,3.42-6.46,5.45-6,6.22.28.53,1.82-.4,4.64.08.19,0,.38.08.57.12a13,13,0,0,0-5.37.5c-1.75.42-3.53.76-5.51,1.18,1.23-1.33,2.28-2.53,3.38-3.68a10.78,10.78,0,0,0,2.89-7.4,60.7,60.7,0,0,1,1.91-11.59c1.09-4.67,2.06-9.37,3.1-14.06a7.71,7.71,0,0,1,.82-2.22,1.16,1.16,0,0,1,1.93-.39A10.18,10.18,0,0,1,106,57.11l.9,1.92c-2.79,1.82-7.38,13.58-6.53,17,.69-6.11,3.34-11.42,6.71-16.62.85,1.85,1.66,3.73,2.34,5.64-2.39,3.45-4.31,7.19-6.61,10.7,2.59-3.17,4.53-6.77,6.8-10.15.35,1.05.66,2.12.91,3.2A82.48,82.48,0,0,1,113,88.36a58,58,0,0,0,.66,8.1c.18,1.4.29,2.8.44,4.19a.68.68,0,0,1-.67.85A2.25,2.25,0,0,1,111.11,100.8Z"/><path class="cls-2" d="M61.24,135.43l.09,0-.06-.07Z"/><path class="cls-3" d="M61.27,135.4h-.05l0,0Z"/></g></g></svg>