<?xml version="1.0" encoding="UTF-8"?>
<svg width="47px" height="29px" viewBox="0 0 47 29" version="1.1" xmlns="http://www.w3.org/2000/svg" xmlns:xlink="http://www.w3.org/1999/xlink">
    <title>behance</title>
    <g id="Page-1" stroke="none" stroke-width="1" fill="none" fill-rule="evenodd">
        <g id="Desktop-HD-Copy-8" transform="translate(-762.000000, -3664.000000)" fill="#FFFFFF" fill-rule="nonzero">
            <g id="behance" transform="translate(762.000000, 3664.000000)">
                <path d="M42.4299668,1.47047734 L30.525156,1.47047734 L30.525156,4.70726851 L42.4769286,4.70726851 L42.4299668,1.47047734 Z M39.9175116,23.7377641 C39.0143853,24.3227967 37.9478775,24.6195554 36.864996,24.5871349 C35.4159576,24.7348237 33.9694934,24.2856301 32.8732449,23.3475127 C31.8706373,22.236163 31.3486749,20.7875871 31.4174298,19.3072627 L46.9617784,19.3072627 C47.0738274,17.7658822 46.9391487,16.216848 46.5626033,14.7160696 C46.1983524,13.2882628 45.5609787,11.9407549 44.6841322,10.7446875 C43.8015374,9.58449737 42.6615829,8.63484301 41.3498459,7.96701565 C39.8903785,7.26350878 38.2806986,6.90942742 36.653668,6.93399719 C35.1234519,6.92304171 33.6064916,7.21184581 32.1922991,7.78336793 C30.897331,8.31707775 29.7239724,9.09743678 28.7406084,10.0789645 C27.760029,11.0801085 27.0007142,12.2678525 26.5099239,13.5682713 C25.9832504,14.9721482 25.7207325,16.457603 25.7350546,17.9528608 C25.7108887,19.4693458 25.965388,20.977756 26.486443,22.4063181 C26.9290154,23.6999553 27.6315427,24.8940891 28.5527613,25.9185809 C29.5058591,26.9244094 30.6772592,27.7088018 31.9809711,28.2141775 C33.4346796,28.7556708 34.9808395,29.0205895 36.5362636,28.9946803 C38.7186207,29.0611997 40.8732789,28.5026607 42.7352183,27.3877627 C44.6158224,26.0812705 45.9697909,24.1728685 46.5626033,21.9931107 L41.3733268,21.9931107 C41.0955144,22.7142359 40.5843046,23.3268713 39.9175116,23.7377641 Z M31.8635666,14.2799062 C32.233121,13.1225383 33.0860595,12.1719255 34.2116556,11.6629261 C34.9488548,11.3385243 35.7516299,11.1815586 36.5597445,11.2038068 C37.7411136,11.105161 38.907602,11.5160444 39.7531454,12.3286492 C40.5509906,13.2834673 41.0629857,14.4355251 41.2324414,15.6572642 L31.4878724,15.6572642 C31.5258769,15.1907577 31.6124208,14.7292533 31.7461622,14.2799062 L31.8635666,14.2799062 Z M19.4421763,13.1780199 C20.6372634,12.6914981 21.6757018,11.8983546 22.4477301,10.8824233 C23.1573775,9.80350267 23.5099162,8.53708639 23.4574083,7.25538071 C23.5034368,6.08655053 23.2702925,4.92330971 22.7764625,3.85789778 C22.361587,2.93487773 21.6955967,2.14085108 20.8510296,1.5623012 C19.9555918,0.960793147 18.9387618,0.553760716 17.8689567,0.368590983 C16.6029144,0.108989697 15.3115833,-0.0141774258 14.0180909,0.00129553058 L0,0.00129553058 L0,28.8799044 L14.3233424,28.8799044 C15.6304983,28.8808228 16.932442,28.7188252 18.1976891,28.3978252 C19.3969634,28.0945167 20.5331468,27.589615 21.5554563,26.9056874 C22.5457352,26.2347145 23.3520962,25.3360133 23.9035452,24.2887073 C24.5138349,23.1174663 24.8126188,21.8148382 24.7723381,20.500973 C24.8168101,18.8727917 24.3496893,17.2704123 23.4339274,15.9097798 C22.4491105,14.5414286 20.9884404,13.5703774 19.3247718,13.1780199 L19.4421763,13.1780199 Z M6.50420631,4.9368209 L12.5857566,4.9368209 C13.1444727,4.93615474 13.7022227,4.98223485 14.2528997,5.07456397 C14.7599678,5.1480288 15.2469301,5.31972838 15.685234,5.57959521 C16.1087042,5.8137784 16.4518378,6.1652155 16.6714313,6.58965771 C16.9433862,7.09863265 17.0729896,7.66880984 17.0471256,8.24248724 C17.1358837,9.24491412 16.7250309,10.2277189 15.9435238,10.8824233 C15.1031897,11.447212 14.0976467,11.7292385 13.0788553,11.6858821 L6.50420631,11.6858821 L6.50420631,4.9368209 Z M17.8689567,22.0160667 C17.6277146,22.4839225 17.262903,22.8802071 16.8123167,23.163865 C16.3434142,23.4489966 15.826748,23.651043 15.2860589,23.7607201 C14.6850836,23.8922363 14.0703199,23.9538794 13.4545495,23.9443678 L6.41028275,23.9443678 L6.41028275,16.0245596 L13.4545495,16.0245596 C14.6633821,15.9728087 15.8571526,16.3028115 16.8592784,16.9657542 C17.7774913,17.7713418 18.2483629,18.9563041 18.1272465,20.1566335 C18.1907302,20.7876571 18.1022749,21.4244485 17.8689567,22.0160667 L17.8689567,22.0160667 Z" id="Shape"></path>
            </g>
        </g>
    </g>
</svg>