<?xml version="1.0" encoding="UTF-8"?>
<svg width="32px" height="32px" viewBox="0 0 32 32" version="1.1" xmlns="http://www.w3.org/2000/svg" xmlns:xlink="http://www.w3.org/1999/xlink">
    <title>linkedin</title>
    <g id="Page-1" stroke="none" stroke-width="1" fill="none" fill-rule="evenodd">
        <g id="Desktop-HD-Copy-8" transform="translate(-582.000000, -3663.000000)" fill="#FFFFFF" fill-rule="nonzero">
            <g id="linkedin" transform="translate(582.000000, 3663.000000)">
                <path d="M29.6338028,0.000212596279 L2.36619718,0.000212596279 C1.74716359,-0.0081088794 1.15007481,0.228153952 0.706313819,0.657237991 C0.262552827,1.08632203 0.00847952003,1.67306995 0,2.28837416 L0,29.7116258 C0.00847952003,30.3269301 0.262552827,30.913678 0.706313819,31.342762 C1.15007481,31.771846 1.74716359,32.0081089 2.36619718,31.9997874 L29.6338028,31.9997874 C30.2528364,32.0081089 30.8499252,31.771846 31.2936862,31.342762 C31.7374472,30.913678 31.9915205,30.3269301 32,29.7116258 L32,2.28837416 C31.9915205,1.67306995 31.7374472,1.08632203 31.2936862,0.657237991 C30.8499252,0.228153952 30.2528364,-0.0081088794 29.6338028,0.000212596279 Z M9.75609756,26.7634933 L4.87804878,26.7634933 L4.87804878,12.4121689 L9.75609756,12.4121689 L9.75609756,26.7634933 Z M7.26022892,10.4566922 L7.26022892,10.4566922 C5.83682428,10.4566922 4.68292683,9.33513413 4.68292683,7.95162209 C4.68292683,6.56811006 5.83682428,5.44655195 7.26022892,5.44655195 C8.25069033,5.3373728 9.21789711,5.78953994 9.74843674,6.60978386 C10.2789764,7.43002778 10.2789764,8.4732164 9.74843674,9.29346033 C9.21789711,10.1137043 8.25069033,10.5658714 7.26022892,10.4566922 L7.26022892,10.4566922 Z M27.1219512,26.7634933 L22.265204,26.7634933 L22.265204,19.0606243 C22.265204,17.1309201 21.5690702,15.8710305 19.804452,15.8710305 C18.6859117,15.8790972 17.6909278,16.5728472 17.3113218,17.6093592 C17.1846326,17.9842006 17.1297374,18.3789658 17.1494302,18.7735609 L17.1494302,26.7475454 L12.2926829,26.7475454 C12.2926829,26.7475454 12.2926829,13.7021068 12.2926829,12.3943733 L17.1494302,12.3943733 L17.1494302,14.4197654 C18.0485772,12.8828073 19.7371704,11.9620861 21.5366919,12.02757 C24.7745234,12.02757 27.1219512,14.084858 27.1219512,18.5024454 L27.1219512,26.7634933 Z" id="Shape"></path>
            </g>
        </g>
    </g>
</svg>