<?xml version="1.0" encoding="UTF-8"?>
<svg width="38px" height="37px" viewBox="0 0 38 37" version="1.1" xmlns="http://www.w3.org/2000/svg" xmlns:xlink="http://www.w3.org/1999/xlink">
    <title>Group 2</title>
    <g id="Page-1" stroke="none" stroke-width="1" fill="none" fill-rule="evenodd">
        <g id="Desktop-HD-Copy-8" transform="translate(-869.000000, -3660.000000)" fill-rule="nonzero">
            <g id="Group-2" transform="translate(869.000000, 3660.000000)">
                <g id="medium">
                    <polygon id="Path" fill="#12100E" points="0 0 38 0 38 37 0 37"></polygon>
                    <path d="M8.19361621,11.9721429 C8.22456076,11.6656344 8.10802848,11.3626804 7.87984364,11.1564148 L5.55496183,8.34787088 L5.55496183,7.92857143 L12.7730613,7.92857143 L18.3519795,20.1989887 L23.2571703,7.92857143 L30.137931,7.92857143 L30.137931,8.34806147 L28.150388,10.259114 C27.9790472,10.3900901 27.8940467,10.6053966 27.9295499,10.8184976 L27.9295499,24.8600738 C27.8940467,25.0731748 27.9790472,25.2884813 28.150388,25.4194574 L30.0913688,27.33051 L30.0913688,27.75 L20.3281195,27.75 L20.3281195,27.33051 L22.3388486,25.3727627 C22.5365007,25.1745484 22.5365007,25.1164183 22.5365007,24.8135697 L22.5365007,13.4637054 L16.9457994,27.7033053 L16.1901606,27.7033053 L9.68132772,13.4637054 L9.68132772,23.007342 C9.62709322,23.4085927 9.75998592,23.812552 10.0416625,24.1026666 L12.6567507,27.2838152 L12.6567507,27.7033053 L5.24137931,27.7033053 L5.24137931,27.2840058 L7.85646749,24.1026666 C8.13612586,23.8120889 8.26129482,23.4054416 8.19361621,23.007342 L8.19361621,11.9721429 Z" id="Path" fill="#FFFFFF"></path>
                </g>
                <polygon id="Path" fill="#FFFFFF" points="0 0 38 0 38 37 0 37"></polygon>
                <path d="M8.08308397,11.08 C8.11540002,10.7707302 7.99370287,10.4650469 7.75540458,10.2569231 L5.32748092,7.42307692 L5.32748092,7 L12.8654962,7 L18.6916794,19.3809615 L23.8142748,7 L31,7 L31,7.42326923 L28.9243664,9.35153846 C28.7454315,9.48369455 28.6566637,9.70094073 28.6937405,9.91596154 L28.6937405,24.0840385 C28.6566637,24.2990593 28.7454315,24.5163055 28.9243664,24.6484615 L30.951374,26.5767308 L30.951374,27 L20.7554046,27 L20.7554046,26.5767308 L22.8552519,24.6013462 C23.0616641,24.4013462 23.0616641,24.3426923 23.0616641,24.0371154 L23.0616641,12.585 L17.2231756,26.9528846 L16.4340458,26.9528846 L9.63673282,12.585 L9.63673282,22.2146154 C9.58009458,22.6194809 9.71887726,23.0270795 10.0130382,23.3198077 L12.7440305,26.5296154 L12.7440305,26.9528846 L5,26.9528846 L5,26.5298077 L7.73099237,23.3198077 C8.02304556,23.0266123 8.15376218,22.6163014 8.08308397,22.2146154 L8.08308397,11.08 Z" id="Path" fill="#1E1E1E"></path>
            </g>
        </g>
    </g>
</svg>