<?xml version="1.0" encoding="UTF-8"?>
<svg width="36px" height="29px" viewBox="0 0 36 29" version="1.1" xmlns="http://www.w3.org/2000/svg" xmlns:xlink="http://www.w3.org/1999/xlink">
    <title>Path</title>
    <g id="Page-1" stroke="none" stroke-width="1" fill="none" fill-rule="evenodd">
        <g id="Desktop-HD-Copy-8" transform="translate(-629.000000, -3665.000000)" fill="#FFFFFF" fill-rule="nonzero">
            <path d="M665,3668.47462 C663.647007,3669.05546 662.21617,3669.43942 660.752,3669.61458 C662.296711,3668.70141 663.454289,3667.26482 664.01,3665.57131 C662.558394,3666.42638 660.969372,3667.02884 659.312,3667.35248 C657.03352,3664.90743 653.373296,3664.29466 650.408822,3665.86198 C647.444347,3667.42929 645.924531,3670.78074 646.712,3674.01408 C640.776249,3673.717 635.247294,3670.93934 631.502,3666.37284 C630.852447,3667.49528 630.511135,3668.76642 630.512,3670.05987 C630.507322,3672.49957 631.737103,3674.77962 633.788,3676.13368 C632.614359,3676.10208 631.465794,3675.79045 630.44,3675.22528 L630.44,3675.31434 C630.458135,3678.78404 632.940976,3681.76207 636.38,3682.43905 C635.73786,3682.63243 635.071175,3682.73438 634.4,3682.74185 C633.935402,3682.73648 633.47196,3682.69479 633.014,3682.61717 C633.987756,3685.58486 636.755403,3687.61565 639.908,3687.67571 C637.310965,3689.69782 634.10459,3690.80142 630.8,3690.81058 C630.198323,3690.81253 629.597124,3690.77684 629,3690.70371 C632.373971,3692.85939 636.305863,3694.00374 640.322,3693.99889 C645.920473,3694.05642 651.30736,3691.88477 655.271367,3687.97227 C659.235373,3684.05977 661.443778,3678.7348 661.4,3673.19474 C661.4,3672.89194 661.4,3672.57133 661.4,3672.25072 C662.812452,3671.20839 664.030654,3669.9306 665,3668.47462 L665,3668.47462 Z" id="Path"></path>
        </g>
    </g>
</svg>