<?xml version="1.0" encoding="UTF-8"?>
<svg width="66px" height="49px" viewBox="0 0 66 49" version="1.1" xmlns="http://www.w3.org/2000/svg" xmlns:xlink="http://www.w3.org/1999/xlink">
    <title>adobe-creative@3x</title>
    <g id="Page-1" stroke="none" stroke-width="1" fill="none" fill-rule="evenodd">
        <g id="Desktop-HD-Copy-8" transform="translate(-233.000000, -3336.000000)" fill-rule="nonzero">
            <g id="adobe-creative" transform="translate(233.000000, 3336.000000)">
                <path d="M40.7916667,0 C33.7702043,-0.00193243147 27.0915506,3.0507409 22.4779167,8.37083409 C21.8116667,8.30141743 21.1616667,8.16666743 20.4791667,8.16666743 C9.26088269,8.16666743 0.166666667,17.3075203 0.166666667,28.5833337 C0.166666667,39.8591471 9.26088269,49 20.4791667,49 L40.7916667,49 C54.2536074,49 65.1666667,38.0309766 65.1666667,24.5 C65.1666667,10.9690243 54.2536074,0 40.7916667,0 Z" id="Path" fill="#F44336"></path>
                <path d="M41.6909918,5 C36.4901704,5 31.6824819,6.9310972 27.9927653,10.3012923 C29.4285848,10.7588594 30.798432,11.4025556 32.0674246,12.2159895 L32.07971,12.2241895 C34.8693503,10.1844974 38.2366495,9.08993985 41.6909918,9.09999405 C50.7248595,9.09999405 58.0715317,16.4553834 58.0715317,25.4999702 C58.0715317,34.5445571 50.7248595,41.8999464 41.6909918,41.8999464 C38.1709202,41.9073543 34.7440679,40.7675525 31.92819,38.6527511 C30.8491714,37.8714462 29.8795565,36.9489433 29.045215,35.9098551 C29.0008141,35.8523211 28.9529486,35.7975528 28.9018852,35.7458553 L22.8001341,28.3002662 C22.336347,27.7333937 21.6057256,27.4573029 20.8834879,27.5759947 C20.1612501,27.6946864 19.5571212,28.1901285 19.2986706,28.8756928 C19.04022,29.561257 19.1666667,30.3327899 19.6304996,30.8996624 L25.8510097,38.4928514 L25.9574832,38.6117512 C26.9485059,39.8335494 28.1074291,40.9241478 29.4915847,41.9450463 C33.0103021,44.5872427 37.2925918,46.0106095 41.6909918,46 C52.9812789,46 62.1666667,36.8036538 62.1666667,25.4999702 C62.1666667,14.1962866 52.9812789,5 41.6909918,5 L41.6909918,5 Z" id="Path" fill="#FAFAFA"></path>
                <path d="M21.6338023,39.8200006 C20.964733,39.9280006 20.2792447,40 19.585547,40 C12.79634,40 7.27138675,34.6160013 7.27138675,28 C7.27138675,20.0600033 15.1401352,13.7480042 23.7148954,16.7280038 C24.4455356,16.9280038 25.2418513,17.2920037 26.0833189,17.8120037 L26.2023558,17.8800036 L39.0213966,25.7000026 C39.9837272,26.2865289 41.2517718,26.001782 41.8536535,25.0640026 C42.4555351,24.1262233 42.1633336,22.8905294 41.201003,22.304003 L28.2875536,14.4280041 C27.2604392,13.7704353 26.1403681,13.2624183 24.9627303,12.9200043 C23.239135,12.3100029 21.4192916,11.9986399 19.585547,12 C10.5305345,12 3.16666667,19.1760035 3.16666667,28 C3.16666667,36.824001 10.5305345,44 19.585547,44 C21.5188702,44 23.3947272,43.652 25.1597569,43.0320001 C23.8725902,42.0842259 22.6908257,41.0076871 21.6338023,39.8200006 L21.6338023,39.8200006 Z" id="Path" fill="#FAFAFA"></path>
            </g>
        </g>
    </g>
</svg>