<?xml version="1.0" encoding="UTF-8"?>
<svg width="35px" height="49px" viewBox="0 0 35 49" version="1.1" xmlns="http://www.w3.org/2000/svg" xmlns:xlink="http://www.w3.org/1999/xlink">
    <title>css3@3x</title>
    <g id="Page-1" stroke="none" stroke-width="1" fill="none" fill-rule="evenodd">
        <g id="Desktop-HD-Copy-8" transform="translate(-720.000000, -3336.000000)" fill-rule="nonzero">
            <g id="css3" transform="translate(720.000000, 3336.000000)">
                <path d="M27.8844451,1.92005428 L24.9920483,1.92005428 L28,5.36161425 L28,7 L21.8046927,7 L21.8046927,5.08159773 L24.8122527,5.08159773 L21.8046927,1.64003776 L21.8046927,8.8817842e-16 L27.8844451,8.8817842e-16 L27.8844451,1.92005428 Z M20.5762858,1.92005428 L17.6838889,1.92005428 L20.6918407,5.36161425 L20.6918407,7 L14.4961416,7 L14.4961416,5.08159773 L17.5040934,5.08159773 L14.4961416,1.64003776 L14.4961416,8.8817842e-16 L20.5762858,8.8817842e-16 L20.5762858,1.92005428 Z M13.3398096,1.99852499 L10.2186533,1.99852499 L10.2186533,5.00147501 L13.3398096,5.00147501 L13.3398096,7 L8,7 L8,0 L13.3398096,0 L13.3398096,1.99852499 Z" id="Shape" fill="#FFFFFF"></path>
                <polygon id="Path" fill="#1572B6" points="3.18539458 45.1011596 0 10 35 10 31.8118516 45.0953617 17.4785595 49"></polygon>
                <polygon id="Path" fill="#33A9DC" points="18 46 29.33359 42.8590487 32 13 18 13"></polygon>
                <polygon id="Path" fill="#FFFFFF" points="17 25.7012767 22.8046475 25.7012767 23.2059866 21.2991093 17 21.2991093 17 17 28 17 27.8948405 18.1533254 26.816857 30 17 30 17 25.7012767"></polygon>
                <polygon id="Path" fill="#EBEBEB" points="16.9996316 36.6165568 16.9815778 36.6218463 12.411389 35.3561563 12.1188439 32 8 32 8.57514226 38.6072793 16.9808409 41 17 40.9943327 17 36.6165568"></polygon>
                <polygon id="Path" fill="#FFFFFF" points="22.5190665 29 21.9809535 34.9949761 17 36.3425997 17 41 26.1555395 38.4566768 26.2229039 37.7002713 27 29 22.5190665 29"></polygon>
                <path d="M18,17 L18,21.298468 L7.3934626,21.298468 L7.30515035,20.3324031 L7.10526504,18.1532569 L7,17 L18,17 Z M17.9846242,25.701146 L17.9846242,30 L13.156231,30 L13.068313,29.033935 L12.8680334,26.8544029 L12.7627684,25.701146 L17.9846242,25.701146 L17.9846242,25.701146 Z" id="Shape" fill="#EBEBEB"></path>
            </g>
        </g>
    </g>
</svg>