<?xml version="1.0" encoding="UTF-8"?>
<svg width="49px" height="49px" viewBox="0 0 49 49" version="1.1" xmlns="http://www.w3.org/2000/svg" xmlns:xlink="http://www.w3.org/1999/xlink">
    <title>figma@3x</title>
    <g id="Page-1" stroke="none" stroke-width="1" fill="none" fill-rule="evenodd">
        <g id="Desktop-HD-Copy-8" transform="translate(-386.000000, -3336.000000)" fill-rule="nonzero">
            <g id="figma" transform="translate(386.000000, 3336.000000)">
                <path d="M0,24.5 C0,10.9690583 10.9690583,0 24.5,0 C38.0309417,0 49,10.9690583 49,24.5 C49,38.0309417 38.0309417,49 24.5,49 C10.9690583,49 0,38.0309417 0,24.5 Z" id="Path" fill="#333333"></path>
                <path d="M20,39 C22.7614583,39 25,36.7614583 25,34 L25,29 L20,29 C17.2385417,29 15,31.2386458 15,34 C15,36.7614583 17.2385417,39 20,39 Z" id="Path" fill="#0ACF83"></path>
                <path d="M15,25 C15,22.2385417 17.2385417,20 20,20 L25,20 L25,30 L20,30 C17.2385417,30 15,27.7613542 15,25 Z" id="Path" fill="#A259FF"></path>
                <path d="M15,15.0000104 C15,12.2385578 17.2385417,10 20,10 L25,10 L25,20 L20,20 C17.2385417,20 15,17.7613588 15,15.0000104 Z" id="Path" fill="#F24E1E"></path>
                <path d="M24,10 L29,10 C31.7614583,10 34,12.2385578 34,15.0000104 C34,17.7613588 31.7614583,20 29,20 L24,20 L24,10 Z" id="Path" fill="#FF7262"></path>
                <path d="M34,25 C34,27.7613542 31.7614583,30 29,30 C26.2385417,30 24,27.7613542 24,25 C24,22.2385417 26.2385417,20 29,20 C31.7614583,20 34,22.2385417 34,25 Z" id="Path" fill="#1ABCFE"></path>
            </g>
        </g>
    </g>
</svg>