<?xml version="1.0" encoding="UTF-8"?>
<svg width="35px" height="49px" viewBox="0 0 35 49" version="1.1" xmlns="http://www.w3.org/2000/svg" xmlns:xlink="http://www.w3.org/1999/xlink">
    <title>html@3x</title>
    <g id="Page-1" stroke="none" stroke-width="1" fill="none" fill-rule="evenodd">
        <g id="Desktop-HD-Copy-8" transform="translate(-669.000000, -3336.000000)" fill-rule="nonzero">
            <g id="html" transform="translate(669.000000, 3336.000000)">
                <polygon id="Path" fill="#E44D26" points="35 10 31.8114343 45.095983 17.4785975 49 3.18527302 45.1013749 0 10"></polygon>
                <polygon id="Path" fill="#F16529" points="18 45 29.3336402 41.8592071 32 12 18 12"></polygon>
                <path d="M10.2300239,20.4147733 L17,20.4147733 L17,16 L5,16 L5.11448123,17.1843873 L6.29076084,29.3503453 L17,29.3503453 L17,24.935572 L10.6674201,24.935572 L10.2300239,20.4147733 L10.2300239,20.4147733 Z M11.3086048,31.5578011 L6.50458899,31.5578011 L7.17499344,38.4896739 L16.9779729,41 L17,40.9944706 L17,36.4012375 L16.9790218,36.4063521 L11.6493513,35.0787546 L11.3086048,31.5578011 L11.3086048,31.5578011 Z" id="Shape" fill="#EBEBEB"></path>
                <path d="M3,0 L5.33986419,0 L5.33986419,2.31156555 L7.48034255,2.31156555 L7.48034255,0 L9.82035091,0 L9.82035091,7 L7.48048671,7 L7.48048671,4.65599901 L5.34000836,4.65599901 L5.34000836,7 L3.00014417,7 L3.00014417,0 L3,0 Z M12.8972074,2.32136826 L10.8376079,2.32136826 L10.8376079,0 L17.2984012,0 L17.2984012,2.32136826 L15.2375041,2.32136826 L15.2375041,7 L12.89764,7 L12.89764,2.32136826 L12.8974958,2.32136826 L12.8972074,2.32136826 Z M18.3237317,0 L20.763505,0 L22.2643052,2.45961531 L23.7636636,0 L26.2044462,0 L26.2044462,7 L23.8740971,7 L23.8740971,3.53041723 L22.2643052,6.01929651 L22.2239378,6.01929651 L20.6131367,3.53041723 L20.6131367,7 L18.3237317,7 L18.3237317,0 Z M27.3688998,0 L29.7094849,0 L29.7094849,4.68627209 L33,4.68627209 L33,7 L27.3687557,7 L27.3687557,0 L27.3688998,0 Z" id="Shape" fill="#FFFFFF"></path>
                <path d="M17.0001375,29.3514527 L22.4073972,29.3514527 L21.8975663,35.0775722 L17,36.4066623 L17,41 L26.0021999,38.4915394 L26.0681974,37.7455679 L27.1002337,26.1219047 L27.2073422,24.9363132 L17.0001375,24.9363132 L17.0001375,29.3514527 Z M17.0001375,20.4043564 L17.0001375,20.4151395 L27.6069022,20.4151395 L27.6948989,19.4228149 L27.8950914,17.1844856 L28,16 L17.0001375,16 L17.0001375,20.4044946 L17.0001375,20.4043564 Z" id="Shape" fill="#FFFFFF"></path>
            </g>
        </g>
    </g>
</svg>