<?xml version="1.0" encoding="UTF-8"?>
<svg width="35px" height="49px" viewBox="0 0 35 49" version="1.1" xmlns="http://www.w3.org/2000/svg" xmlns:xlink="http://www.w3.org/1999/xlink">
    <title>javascript 2@3x</title>
    <g id="Page-1" stroke="none" stroke-width="1" fill="none" fill-rule="evenodd">
        <g id="Desktop-HD-Copy-8" transform="translate(-771.000000, -3336.000000)" fill-rule="nonzero">
            <g id="javascript" transform="translate(771.000000, 3336.000000)">
                <polygon id="Path" fill="#E6A329" points="34.8059494 9.56647748 0 9.56647748 3.26297468 44.8230811 17.4012025 48.8185676 31.5394304 44.8230811"></polygon>
                <polygon id="Path" fill="#F1BF22" points="17.4012025 12.4389369 17.4012025 45.8308919 28.8563924 42.5973333 31.6431013 12.4389369"></polygon>
                <polygon id="Path" fill="#FFFFFF" points="26.5144937 16.7641802 8.90151899 16.7641802 7.67474684 29.9632793 7.7 29.8811712 22.6631646 29.8811712 22.1758228 35.4658468 17.4016456 36.8343153 12.5570253 35.4437748 12.2668354 32.0636577 7.86924051 32.0636577 8.49658228 38.8177117 17.4016456 41.3365766 26.3106962 38.8177117 27.5374684 25.5603423 11.6572152 25.5603423 11.8610127 21.1432793 22.8789241 21.1432793 23.0437342 23.6740631 27.4785443 23.6740631"></polygon>
                <path d="M17.4051899,16.7641802 L8.90151899,16.7641802 L7.67474684,29.9632793 L7.7,29.8811712 L17.4047468,29.8811712 L17.4047468,25.5753514 L12.2765823,25.5753514 L12.4803797,21.1582883 L17.4051899,21.1582883 L17.4051899,16.7641802 Z M12.2765823,32.0658649 L7.86879747,32.0658649 L8.49613924,38.8163874 L17.4012025,41.3326036 L17.4012025,36.8404955 L12.5565823,35.4464234 L12.2765823,32.0658649 Z" id="Shape" fill="#EBEBEB"></path>
                <path d="M14.0168354,4.3662973 L10.9182278,4.3662973 L10.9182278,6.58277477 L16.2346835,6.58277477 L16.2346835,0 L14.0194937,0 L14.0168354,4.3662973 Z M23.8863924,0.0353153153 L18.4848734,0.0353153153 L18.4848734,2.33963964 C19.2061392,3.05830631 19.5822785,3.40395495 20.6446835,4.44487387 L18.4848734,4.44487387 L18.4848734,6.54613514 L23.8859494,6.54613514 L23.8859494,4.44840541 L21.7283544,2.34317117 L23.8881646,2.34317117 L23.8863924,0.0353153153 Z" id="Shape" fill="#FFFFFF"></path>
            </g>
        </g>
    </g>
</svg>