<?xml version="1.0" encoding="UTF-8"?>
<svg width="55px" height="49px" viewBox="0 0 55 49" version="1.1" xmlns="http://www.w3.org/2000/svg" xmlns:xlink="http://www.w3.org/1999/xlink">
    <title>sketch@3x</title>
    <g id="Page-1" stroke="none" stroke-width="1" fill="none" fill-rule="evenodd">
        <g id="Desktop-HD-Copy-8" transform="translate(-315.000000, -3336.000000)" fill-rule="nonzero">
            <g id="sketch" transform="translate(315.000000, 3336.000000)">
                <polygon id="Path" fill="#FDB300" points="11.8441695 1.61513879 27.0615465 0 42.2789235 1.61513879 54.0615465 17.4712381 27.0615465 49 0.0615464995 17.4712381"></polygon>
                <polygon id="Path" fill="#EA6C00" points="10.9987596 17 27.0615465 49 0.0615464995 17"></polygon>
                <polygon id="Path" fill="#EA6C00" points="43.1243334 17 27.0615465 49 54.0615465 17"></polygon>
                <polygon id="Path" fill="#FDAD00" points="11.0615465 17 43.0615465 17 27.0615465 49"></polygon>
                <polygon id="Path" fill="#FDD231" points="27.0615465 0 11.9036518 1.5715749 11.0615465 17"></polygon>
                <polygon id="Path" fill="#FDD231" points="27.0615465 0 42.2194412 1.5715749 43.0615465 17"></polygon>
                <polygon id="Path" fill="#FDAD00" points="54.0615465 18 42.0615465 2 42.9225533 18"></polygon>
                <polygon id="Path" fill="#FEEEB7" points="27.0615465 0 11.0615465 17 43.0615465 17"></polygon>
                <polygon id="Path" fill="#FDAD00" points="0.0615464995 18 12.0615465 2 11.2005397 18"></polygon>
            </g>
        </g>
    </g>
</svg>